#!OML:ASF I:\Actors\actors\Patient Classification 1\Patient 1\Session 1\Subject1.ASF
:FULLY-SPECIFIED
:DEGREES
344
root 1.55669 17.4322 9.32817 7.97462 3.40485 -6.65997
lowerback -1.23146 2.06189 4.37454
upperback -8.74427 3.0753 1.79761
thorax -8.37795 1.2869 -0.726944
lowerneck -5.95531 -9.34339 -7.35654
upperneck 1.07964 -12.3109 10.2098
head 2.38191 -5.94808 3.66673
rclavicle 8.31168e-015 -1.90833e-014
rhumerus -35.1908 13.4172 -102.977
rradius 126.057
rwrist -42.0092
rhand -14.2803 -58.7391
rfingers 7.12502
rthumb 11.8588 -88.3832
lclavicle 8.31168e-015 -1.90833e-014
lhumerus -58.1254 17.1766 77.4821
lradius 78.6815
lwrist 6.57193
lhand -27.5545 -16.5281
lfingers 7.12502
lthumb -0.955612 13.4495
rfemur -4.38504 19.9521 20.1068
rtibia 7.73987
rfoot -16.8152 -26.5804
rtoes 3.09138
lfemur 2.91831 -36.3871 -16.0991
ltibia -3.91907
lfoot -10.8207 40.6439
ltoes 3.90486
345
root 1.54056 17.4333 9.3425 8.0836 3.82709 -6.67792
lowerback -1.14721 2.10054 4.44814
upperback -8.76565 3.14057 1.82885
thorax -8.4474 1.31402 -0.742182
lowerneck -6.88611 -9.77729 -7.17716
upperneck 1.53072 -12.8505 9.53471
head 2.65211 -6.19692 3.34748
rclavicle 2.52705e-014 4.67144e-015
rhumerus -35.9395 13.2256 -103.132
rradius 126.244
rwrist -41.6365
rhand -14.5492 -58.7098
rfingers 7.12502
rthumb 11.5995 -88.3687
lclavicle 2.52705e-014 4.67144e-015
lhumerus -58.0731 17.2893 77.6094
lradius 78.777
lwrist 6.66497
lhand -27.4918 -16.7291
lfingers 7.12502
lthumb -0.8951 13.2488
rfemur -4.51883 19.6797 20.1833
rtibia 7.93423
rfoot -17.0859 -26.6479
rtoes 3.48943
lfemur 2.71213 -36.5533 -15.8635
ltibia -3.94297
lfoot -10.7414 40.4692
ltoes 3.47574
346
root 1.52331 17.4335 9.35642 8.14523 4.2475 -6.75868
lowerback -1.0204 2.09706 4.56835
upperback -8.73756 3.15289 1.88433
thorax -8.48889 1.31337 -0.755741
lowerneck -5.92333 -9.54381 -7.41853
upperneck -0.231497 -12.4731 10.1823
head 2.00252 -6.04744 3.69197
rclavicle 3.6154e-015 -4.84041e-014
rhumerus -36.4672 13.1796 -103.27
rradius 126.171
rwrist -41.2662
rhand -14.8735 -58.8679
rfingers 7.12502
rthumb 11.2867 -88.5443
lclavicle 3.6154e-015 -4.84041e-014
lhumerus -57.9992 17.5137 77.6994
lradius 78.8812
lwrist 6.74176
lhand -27.688 -16.9577
lfingers 7.12502
lthumb -1.08456 13.0193
rfemur -4.6198 19.3745 20.3527
rtibia 8.14749
rfoot -17.3178 -26.6894
rtoes 3.65262
lfemur 2.56224 -36.6703 -15.5729
ltibia -3.98382
lfoot -10.5849 40.268
ltoes 2.90321
347
root 1.50713 17.4334 9.37143 8.14094 4.74979 -6.79126
lowerback -0.875917 2.05034 4.66672
upperback -8.69903 3.10785 1.94827
thorax -8.53317 1.28638 -0.745461
lowerneck -5.84587 -9.62188 -7.42356
upperneck -0.951966 -12.5267 9.72343
head 1.93539 -6.10287 3.96677
rclavicle 1.56108e-014 4.05521e-014
rhumerus -36.6878 13.2076 -103.344
rradius 125.71
rwrist -41.0945
rhand -15.3221 -58.7374
rfingers 7.12502
rthumb 10.854 -88.4369
lclavicle 1.56108e-014 4.05521e-014
lhumerus -58.0608 17.6776 77.7496
lradius 79.0351
lwrist 6.87807
lhand -28.0246 -17.2291
lfingers 7.12502
lthumb -1.40964 12.746
rfemur -4.57224 19.0536 20.5096
rtibia 8.24205
rfoot -17.4525 -26.845
rtoes 3.50946
lfemur 2.48852 -36.87 -15.3972
ltibia -3.99818
lfoot -10.4466 40.0607
ltoes 2.52064
348
root 1.48834 17.4329 9.38682 8.12278 5.22678 -6.77288
lowerback -0.731962 2.02201 4.71119
upperback -8.69873 3.08795 2.01378
thorax -8.62082 1.27458 -0.705509
lowerneck -5.62079 -9.72784 -7.40881
upperneck -1.55503 -12.6325 9.43608
head 1.67736 -6.16952 3.88071
rclavicle -3.23631e-014 -2.33448e-014
rhumerus -36.5684 13.2651 -103.297
rradius 124.877
rwrist -41.2097
rhand -15.8352 -58.3339
rfingers 7.12502
rthumb 10.3591 -88.0588
lclavicle -3.23631e-014 -2.33448e-014
lhumerus -58.0938 17.6851 77.8366
lradius 79.0319
lwrist 7.00577
lhand -28.3925 -17.4095
lfingers 7.12502
lthumb -1.76503 12.563
rfemur -4.45034 18.8528 20.6401
rtibia 8.24512
rfoot -17.5991 -27.0909
rtoes 3.60547
lfemur 2.49058 -37.2249 -15.3247
ltibia -4.02519
lfoot -10.2988 40.0203
ltoes 1.967
349
root 1.46764 17.4323 9.40133 8.10518 5.56285 -6.78708
lowerback -0.545662 2.06437 4.80431
upperback -8.73793 3.1692 2.05899
thorax -8.7699 1.30623 -0.722305
lowerneck -5.33902 -9.85544 -7.43762
upperneck -1.99388 -12.7832 9.13995
head 1.47173 -6.25728 3.7984
rclavicle 2.38231e-015 -5.40694e-014
rhumerus -36.1211 13.2662 -103.109
rradius 123.805
rwrist -41.6323
rhand -16.3387 -58.1478
rfingers 7.12502
rthumb 9.87342 -87.8963
lclavicle 2.38231e-015 -5.40694e-014
lhumerus -57.8398 17.5746 77.9442
lradius 78.732
lwrist 7.00062
lhand -28.7255 -17.4214
lfingers 7.12502
lthumb -2.08662 12.5482
rfemur -4.36073 18.6724 20.8003
rtibia 8.29376
rfoot -17.7647 -27.21
rtoes 3.79285
lfemur 2.55582 -37.4948 -15.2365
ltibia -4.11613
lfoot -9.9804 40.0601
ltoes 1.14984
350
root 1.45062 17.428 9.41194 8.21139 5.58084 -6.86378
lowerback -0.402256 2.25522 5.03062
upperback -8.83699 3.45439 2.06808
thorax -8.94306 1.42519 -0.863792
lowerneck -4.97188 -9.98914 -7.6769
upperneck -2.42378 -12.9462 9.11872
head 1.29555 -6.34833 3.85292
rclavicle -1.24551e-014 -9.69075e-016
rhumerus -35.4377 13.0713 -102.757
rradius 122.607
rwrist -42.326
rhand -16.6977 -58.2368
rfingers 7.12502
rthumb 9.52703 -88.0015
lclavicle -1.24551e-014 -9.69075e-016
lhumerus -57.3247 17.3946 78.0512
lradius 78.2392
lwrist 6.85616
lhand -28.8392 -17.5151
lfingers 7.12502
lthumb -2.19645 12.4534
rfemur -4.5664 18.4591 20.8993
rtibia 8.48136
rfoot -17.7615 -27.0278
rtoes 3.60913
lfemur 2.60508 -37.9491 -15.1295
ltibia -4.22638
lfoot -9.94765 40.5621
ltoes 1.16074
351
root 1.43359 17.4184 9.41598 8.66036 5.05376 -6.98303
lowerback -0.476176 2.65358 5.21969
upperback -9.04641 4.00674 2.06243
thorax -9.09674 1.67707 -1.0105
lowerneck -4.50583 -10.1315 -7.90488
upperneck -2.89421 -13.1296 9.12998
head 1.09314 -6.4509 3.92332
rclavicle 4.66523e-015 6.75868e-015
rhumerus -34.5449 12.7385 -102.277
rradius 121.322
rwrist -43.0831
rhand -17.0971 -58.5461
rfingers 7.12502
rthumb 9.14164 -88.3279
lclavicle 4.66523e-015 6.75868e-015
lhumerus -56.7065 17.1219 78.158
lradius 77.6875
lwrist 6.61855
lhand -28.8836 -17.6658
lfingers 7.12502
lthumb -2.23929 12.3021
rfemur -5.43223 18.3208 20.7986
rtibia 8.91342
rfoot -17.5925 -26.3979
rtoes 3.15661
lfemur 2.44315 -38.8718 -14.9356
ltibia -4.32355
lfoot -10.6295 41.9965
ltoes 2.39211
352
root 1.40705 17.4102 9.42239 9.31181 4.08491 -7.16533
lowerback -0.732431 3.2155 5.1854
upperback -9.31074 4.76325 2.11679
thorax -9.21116 2.0508 -0.973988
lowerneck -4.11496 -10.3224 -8.04083
upperneck -3.19719 -13.388 8.99109
head 0.946392 -6.58882 3.91471
rclavicle -1.76546e-014 5.01931e-015
rhumerus -33.4661 12.3541 -101.656
rradius 119.875
rwrist -43.5111
rhand -17.4832 -58.424
rfingers 7.12502
rthumb 8.76911 -88.2219
lclavicle -1.76546e-014 5.01931e-015
lhumerus -56.0786 16.7499 78.3402
lradius 77.2442
lwrist 6.37771
lhand -28.9002 -17.5497
lfingers 7.12502
lthumb -2.25533 12.4181
rfemur -6.62884 18.4134 20.6854
rtibia 9.44277
rfoot -17.3428 -25.5674
rtoes 2.3916
lfemur 2.28449 -39.9194 -14.6364
ltibia -4.56219
lfoot -11.7069 43.9742
ltoes 4.08273
353
root 1.39003 17.4352 9.47496 8.57477 6.46031 -6.84678
lowerback -0.52705 2.63168 5.26001
upperback -9.161 3.99128 2.10966
thorax -9.19781 1.66709 -0.981775
lowerneck -3.878 -10.5584 -8.32499
upperneck -3.24418 -13.7073 8.88271
head 0.930519 -6.75093 3.92353
rclavicle 1.66606e-014 2.59414e-014
rhumerus -32.3096 11.8689 -100.845
rradius 118.226
rwrist -43.5455
rhand -17.6151 -57.9021
rfingers 7.12502
rthumb 8.64182 -87.7052
lclavicle 1.66606e-014 2.59414e-014
lhumerus -55.4635 16.6583 78.4797
lradius 77.009
lwrist 5.93995
lhand -28.4802 -17.3722
lfingers 7.12502
lthumb -1.8497 12.5996
rfemur -4.31658 18.5924 21.2293
rtibia 7.89951
rfoot -18.2166 -27.8059
rtoes 4.45859
lfemur 2.46318 -39.4791 -14.7351
ltibia -4.45435
lfoot -9.93431 41.3667
ltoes 0.722116
354
root 1.37779 17.423 9.47309 9.3151 5.37795 -7.12008
lowerback -0.712224 3.29484 5.58064
upperback -9.50313 4.90682 2.10536
thorax -9.40528 2.08388 -1.21829
lowerneck -3.63351 -10.9311 -8.86284
upperneck -3.43084 -14.1978 9.03501
head 0.927629 -6.99525 4.05873
rclavicle 4.52235e-014 2.10712e-014
rhumerus -31.199 11.2503 -99.9525
rradius 116.676
rwrist -43.6549
rhand -17.7149 -58.2501
rfingers 7.12502
rthumb 8.54548 -88.0572
lclavicle 4.52235e-014 2.10712e-014
lhumerus -54.8275 16.9931 78.4377
lradius 76.9432
lwrist 5.22364
lhand -27.8333 -17.461
lfingers 7.12502
lthumb -1.22488 12.5153
rfemur -5.77576 18.3025 21.0433
rtibia 8.53677
rfoot -17.7226 -26.5707
rtoes 3.28272
lfemur 2.11515 -40.5636 -14.321
ltibia -4.57622
lfoot -10.822 43.4831
ltoes 2.42846
